<?xml version="1.0" encoding="UTF-8"?>
<svg xmlns="http://www.w3.org/2000/svg" xmlns:xlink="http://www.w3.org/1999/xlink" width="540.5pt" height="120.5pt" viewBox="0 0 540.5 120.5" version="1.1">
<defs>
<clipPath id="clip1">
  <path d="M 0 0 L 186 0 L 186 120.5 L 0 120.5 Z M 0 0 "/>
</clipPath>
<clipPath id="clip2">
  <path d="M 194 0 L 540.5 0 L 540.5 120.5 L 194 120.5 Z M 194 0 "/>
</clipPath>
</defs>
<g id="surface1">
<g clip-path="url(#clip1)" clip-rule="nonzero">
<path style=" stroke:none;fill-rule:evenodd;fill:rgb(33.714294%,34.104919%,34.104919%);fill-opacity:1;" d="M 21.316406 58.960938 L 2.1875 55.324219 C 4.347656 46.949219 8.074219 40.75 13.347656 36.730469 C 18.617188 32.707031 26.457031 30.695313 36.847656 30.695313 C 46.28125 30.695313 53.328125 31.882813 57.957031 34.277344 C 62.558594 36.675781 65.824219 39.703125 67.703125 43.394531 C 69.578125 47.085938 70.53125 53.835938 70.53125 63.699219 L 70.222656 90.144531 C 70.222656 97.664063 70.554688 103.226563 71.222656 106.808594 C 71.890625 110.390625 73.152344 114.21875 75.003906 118.296875 L 54.023438 118.296875 C 53.484375 116.808594 52.789063 114.605469 51.992188 111.683594 C 51.65625 110.335938 51.398438 109.453125 51.246094 109.039063 C 47.644531 112.839844 43.789063 115.679688 39.675781 117.578125 C 35.5625 119.480469 31.191406 120.445313 26.535156 120.445313 C 18.332031 120.445313 11.855469 118.046875 7.125 113.253906 C 2.390625 108.488281 0.0273438 102.429688 0.0273438 95.101563 C 0.0273438 90.28125 1.105469 85.957031 3.265625 82.152344 C 5.425781 78.378906 8.433594 75.460938 12.34375 73.449219 C 16.226563 71.4375 21.832031 69.675781 29.160156 68.160156 C 39.03125 66.175781 45.898438 64.304688 49.703125 62.597656 L 49.703125 60.308594 C 49.703125 55.902344 48.699219 52.761719 46.695313 50.859375 C 44.664063 48.988281 40.859375 48.050781 35.277344 48.050781 C 31.5 48.050781 28.566406 48.851563 26.457031 50.476563 C 24.324219 52.074219 22.628906 54.910156 21.316406 58.960938 Z M 49.703125 77.304688 C 47.003906 78.269531 42.710938 79.425781 36.820313 80.777344 C 30.957031 82.125 27.101563 83.449219 25.300781 84.714844 C 22.550781 86.835938 21.164063 89.480469 21.164063 92.703125 C 21.164063 95.898438 22.269531 98.628906 24.480469 100.941406 C 26.691406 103.253906 29.492188 104.410156 32.914063 104.410156 C 36.71875 104.410156 40.371094 103.0625 43.839844 100.390625 C 46.386719 98.324219 48.082031 95.84375 48.878906 92.871094 C 49.417969 90.941406 49.703125 87.25 49.703125 81.824219 Z M 91.382813 -0.046875 L 112.519531 -0.046875 L 112.519531 20.945313 L 91.382813 20.945313 Z M 91.382813 32.515625 L 112.519531 32.515625 L 112.519531 118.296875 L 91.382813 118.296875 Z M 154.453125 118.296875 L 133.320313 118.296875 L 133.320313 32.515625 L 152.910156 32.515625 L 152.910156 44.691406 C 156.28125 38.933594 159.3125 35.160156 162.011719 33.367188 C 164.714844 31.578125 167.773438 30.695313 171.191406 30.695313 C 176.027344 30.695313 180.679688 32.128906 185.152344 34.96875 L 178.597656 54.746094 C 175.023438 52.265625 171.707031 51.027344 168.648438 51.027344 C 165.664063 51.027344 163.144531 51.90625 161.085938 53.644531 C 159.03125 55.40625 157.410156 58.546875 156.226563 63.121094 C 155.046875 67.691406 154.453125 77.277344 154.453125 91.851563 Z M 154.453125 118.296875 "/>
</g>
<g clip-path="url(#clip2)" clip-rule="nonzero">
<path style=" stroke:none;fill-rule:evenodd;fill:rgb(4.315186%,10.205078%,33.325195%);fill-opacity:1;" d="M 194.695313 -0.046875 L 225.703125 -0.046875 L 225.703125 40.835938 C 228.765625 37.390625 232.234375 34.828125 236.144531 33.09375 C 240.027344 31.386719 244.320313 30.53125 249.050781 30.53125 C 258.796875 30.53125 266.84375 34.277344 273.21875 41.796875 C 279.597656 49.320313 282.785156 60.117188 282.785156 74.191406 C 282.785156 83.558594 281.320313 91.824219 278.414063 98.984375 C 275.507813 106.121094 271.472656 111.464844 266.328125 114.988281 C 261.1875 118.515625 255.480469 120.277344 249.207031 120.277344 C 243.832031 120.277344 238.894531 119.039063 234.445313 116.558594 C 231.078125 114.605469 227.402344 110.96875 223.441406 105.597656 L 223.441406 118.296875 L 194.695313 118.296875 Z M 225.472656 75.074219 C 225.472656 82.484375 226.757813 87.855469 229.355469 91.160156 C 231.925781 94.496094 235.191406 96.148438 239.152344 96.148438 C 242.804688 96.148438 245.886719 94.523438 248.355469 91.246094 C 250.851563 87.964844 252.085938 82.484375 252.085938 74.773438 C 252.085938 67.96875 250.875 62.953125 248.433594 59.785156 C 246.015625 56.589844 243.058594 54.992188 239.613281 54.992188 C 235.449219 54.992188 232.054688 56.644531 229.433594 59.980469 C 226.785156 63.285156 225.472656 68.324219 225.472656 75.074219 Z M 298.519531 -0.046875 L 329.222656 -0.046875 L 329.222656 118.296875 L 298.519531 118.296875 Z M 433.046875 118.296875 L 404.378906 118.296875 L 404.378906 104.46875 C 400.109375 110.167969 395.816406 114.21875 391.496094 116.640625 C 387.152344 119.066406 381.828125 120.277344 375.503906 120.277344 C 367.070313 120.277344 360.488281 117.578125 355.679688 112.152344 C 350.898438 106.753906 348.503906 98.40625 348.503906 87.140625 L 348.503906 32.515625 L 379.359375 32.515625 L 379.359375 79.785156 C 379.359375 85.15625 380.285156 88.984375 382.136719 91.273438 C 383.988281 93.53125 386.585938 94.660156 389.925781 94.660156 C 393.554688 94.660156 396.535156 93.144531 398.875 90.144531 C 401.1875 87.113281 402.347656 81.6875 402.347656 73.863281 L 402.347656 32.515625 L 433.046875 32.515625 Z M 540.574219 83.585938 L 479.019531 83.585938 C 479.585938 88.847656 480.898438 92.785156 483.03125 95.375 C 485.988281 99.09375 489.871094 100.941406 494.652344 100.941406 C 497.6875 100.941406 500.566406 100.140625 503.265625 98.542969 C 504.9375 97.523438 506.738281 95.734375 508.640625 93.171875 L 538.878906 96.148438 C 534.25 104.742188 528.671875 110.941406 522.140625 114.660156 C 515.609375 118.40625 506.222656 120.277344 494.011719 120.277344 C 483.390625 120.277344 475.058594 118.679688 468.964844 115.457031 C 462.898438 112.261719 457.859375 107.167969 453.847656 100.195313 C 449.863281 93.199219 447.855469 84.992188 447.855469 75.570313 C 447.855469 62.15625 451.867188 51.273438 459.890625 42.984375 C 467.886719 34.691406 478.96875 30.53125 493.085938 30.53125 C 504.550781 30.53125 513.578125 32.40625 520.210938 36.125 C 526.84375 39.84375 531.910156 45.214844 535.378906 52.292969 C 538.851563 59.34375 540.574219 68.546875 540.574219 79.867188 Z M 509.410156 67.886719 C 508.820313 61.492188 507.199219 56.921875 504.601563 54.167969 C 502.007813 51.410156 498.613281 50.035156 494.371094 50.035156 C 489.484375 50.035156 485.578125 52.128906 482.644531 56.289063 C 480.792969 58.878906 479.609375 62.734375 479.097656 67.886719 Z M 509.410156 67.886719 "/>
</g>
</g>
</svg>
